I Do Not Like You Sam I Am
The San Diego team implodes after Frank & Zach viciously berate Sam for her poor performance in the challenge. And another surprise romance blossoms in the house, but the crush may be one-sided.
The remaining teams are tested during a physically exhausting challenge, and the pressure of the game cracks San Diego's unity.

General
Format                                   : Matroska
File size                                : 625 MiB
Duration                                 : 40mn 48s
Overall bit rate                         : 2 141 Kbps
Video
Format                                   : AVC
Format/Info                              : Advanced Video Codec
Width                                    : 768 pixels
Height                                   : 432 pixels
Display aspect ratio                     : 16:9
Frame rate                               : 29.970 fps
Stream size                              : 557 MiB (89%)

Audio
Bit rate                                 : 192 Kbps
Channel(s)                               : 2 channels
Sampling rate                            : 44.1 KHz
Compression mode                         : Lossy
Stream size                              : 56.0 MiB (9%)


